<mxfile host="app.diagrams.net" agent="Mozilla/5.0 (Windows NT 10.0; Win64; x64) AppleWebKit/537.36 (KHTML, like Gecko) Chrome/129.0.0.0 Safari/537.36 Edg/129.0.0.0" version="24.7.17">
  <diagram id="u04uSDArdzlPebj_fiQG" name="Página-1">
    <mxGraphModel dx="1252" dy="694" grid="1" gridSize="10" guides="1" tooltips="1" connect="1" arrows="1" fold="1" page="1" pageScale="1" pageWidth="1169" pageHeight="827" math="0" shadow="0">
      <root>
        <mxCell id="0" />
        <mxCell id="1" parent="0" />
        <mxCell id="IULxUuQLuFfqzKgCPDx4-6" style="edgeStyle=orthogonalEdgeStyle;rounded=0;orthogonalLoop=1;jettySize=auto;html=1;entryX=0;entryY=0.5;entryDx=0;entryDy=0;endArrow=none;endFill=0;" edge="1" parent="1" source="ugz5MF-itczK6f85yWWh-1" target="ugz5MF-itczK6f85yWWh-2">
          <mxGeometry relative="1" as="geometry" />
        </mxCell>
        <mxCell id="ugz5MF-itczK6f85yWWh-1" value="Usuário" style="shape=umlActor;verticalLabelPosition=bottom;verticalAlign=top;html=1;outlineConnect=0;" parent="1" vertex="1">
          <mxGeometry x="40" y="50" width="30" height="60" as="geometry" />
        </mxCell>
        <mxCell id="IULxUuQLuFfqzKgCPDx4-3" value="" style="group" vertex="1" connectable="0" parent="1">
          <mxGeometry x="160" width="250" height="130" as="geometry" />
        </mxCell>
        <mxCell id="IULxUuQLuFfqzKgCPDx4-1" value="" style="rounded=0;whiteSpace=wrap;html=1;fillColor=none;" vertex="1" parent="IULxUuQLuFfqzKgCPDx4-3">
          <mxGeometry width="250" height="130" as="geometry" />
        </mxCell>
        <mxCell id="ugz5MF-itczK6f85yWWh-2" value="Login" style="ellipse;whiteSpace=wrap;html=1;" parent="IULxUuQLuFfqzKgCPDx4-3" vertex="1">
          <mxGeometry x="65" y="40" width="120" height="80" as="geometry" />
        </mxCell>
        <mxCell id="IULxUuQLuFfqzKgCPDx4-2" value="Sistema" style="text;html=1;align=center;verticalAlign=middle;whiteSpace=wrap;rounded=0;" vertex="1" parent="IULxUuQLuFfqzKgCPDx4-3">
          <mxGeometry x="95" width="60" height="30" as="geometry" />
        </mxCell>
      </root>
    </mxGraphModel>
  </diagram>
</mxfile>
